<svg width="32" height="32" viewBox="0 0 32 32" fill="none" xmlns="http://www.w3.org/2000/svg">
<path fill-rule="evenodd" clip-rule="evenodd" d="M16 32C24.8365 32 32 24.8365 32 16C32 7.16345 24.8365 0 16 0C7.16345 0 0 7.16345 0 16C0 24.8365 7.16345 32 16 32ZM12.965 8.20142C12.3261 8.0564 11.672 7.98926 11.017 8.0014H4V23.6964H11.227C11.8852 23.6981 12.5406 23.6099 13.175 23.4344C13.7867 23.269 14.3629 22.9927 14.875 22.6194C15.3723 22.2419 15.7744 21.7532 16.049 21.1924C16.3461 20.5496 16.4925 19.8474 16.477 19.1394C16.504 18.2514 16.2685 17.3752 15.8 16.6204C15.312 15.908 14.5858 15.3932 13.752 15.1684C14.3664 14.8801 14.8913 14.4308 15.271 13.8684C15.632 13.2728 15.8097 12.5842 15.782 11.8884C15.7982 11.2546 15.6807 10.6246 15.437 10.0394C15.225 9.56348 14.8915 9.15167 14.47 8.8454C14.0136 8.53735 13.5029 8.31885 12.965 8.20142ZM12.037 13.9124C11.6213 14.2166 11.1147 14.3706 10.6 14.3494V14.3634H7.27399V10.6964H10.362C10.6448 10.6912 10.9273 10.7156 11.205 10.7694C11.4609 10.8111 11.7054 10.9054 11.923 11.0464C12.1378 11.1745 12.3114 11.3616 12.423 11.5854C12.5546 11.8665 12.6163 12.1753 12.603 12.4854C12.6265 12.7509 12.5875 13.0182 12.4893 13.2661C12.391 13.5138 12.2361 13.7352 12.037 13.9124ZM11.705 20.9314C11.4019 21.002 11.0912 21.0356 10.78 21.0314H7.27399V16.7094H10.849C11.4619 16.675 12.0677 16.8553 12.562 17.2194C12.7952 17.4394 12.9749 17.7099 13.0875 18.0101C13.2 18.3103 13.2422 18.6323 13.211 18.9514C13.2281 19.3016 13.162 19.6508 13.018 19.9704C12.8938 20.2211 12.7085 20.4364 12.479 20.5964C12.2448 20.7565 11.982 20.8702 11.705 20.9314ZM21.14 20.9734C21.397 21.2116 21.6997 21.395 22.0298 21.5126C22.3598 21.6302 22.7103 21.6794 23.06 21.6574C23.6143 21.6714 24.1579 21.5027 24.607 21.1774C24.9723 20.9399 25.249 20.5883 25.394 20.1774H28.005C27.7268 21.3472 27.0474 22.3826 26.085 23.1034C25.1617 23.7162 24.0706 24.0266 22.963 23.9914C22.1725 24.0018 21.388 23.8531 20.656 23.5544C19.9939 23.2783 19.4001 22.8609 18.916 22.3314C18.4338 21.7766 18.0633 21.1338 17.825 20.4384C17.5575 19.6611 17.4266 18.8434 17.438 18.0214C17.4331 17.2132 17.5685 16.4103 17.838 15.6484C18.2001 14.5765 18.8925 13.6469 19.8157 12.9929C20.739 12.339 21.8457 11.9943 22.977 12.0084C23.8123 11.991 24.6382 12.1864 25.377 12.5764C26.0448 12.9426 26.6209 13.4554 27.062 14.0764C27.5132 14.728 27.8366 15.4592 28.015 16.2314C28.2107 17.0605 28.2805 17.9145 28.222 18.7644H20.445C20.382 19.5629 20.6311 20.3548 21.14 20.9734ZM24.552 15.0044C24.3344 14.7867 24.0726 14.6182 23.7844 14.5103C23.4961 14.4022 23.1881 14.3573 22.881 14.3784C22.4736 14.3629 22.0691 14.4531 21.707 14.6404C21.4199 14.7985 21.1665 15.0111 20.961 15.2664C20.7789 15.5057 20.6432 15.7771 20.561 16.0664C20.4869 16.3077 20.4406 16.5566 20.423 16.8084H25.24C25.198 16.152 24.959 15.5236 24.554 15.0054L24.552 15.0044ZM19.802 9.04938H25.838V10.5924H19.802V9.04938Z" fill="#E8A6A2"/>
</svg>
