<svg xmlns="http://www.w3.org/2000/svg" width="32" height="32" viewBox="0 0 32 32">
  <path id="Shape" d="M16,32A16,16,0,1,1,32,16,16.018,16.018,0,0,1,16,32ZM7.025,21.64h0a10.478,10.478,0,0,0,16.124-8.825c0-.141,0-.293-.011-.478a7.378,7.378,0,0,0,1.835-1.9,7.318,7.318,0,0,1-2.115.579,3.69,3.69,0,0,0,1.621-2.038,7.322,7.322,0,0,1-2.339.894,3.688,3.688,0,0,0-6.276,3.36,10.49,10.49,0,0,1-7.59-3.848A3.687,3.687,0,0,0,9.414,14.3a3.7,3.7,0,0,1-1.668-.46v.046A3.69,3.69,0,0,0,10.7,17.494a3.675,3.675,0,0,1-.971.129,3.744,3.744,0,0,1-.692-.067,3.683,3.683,0,0,0,3.441,2.558A7.353,7.353,0,0,1,7.9,21.691,7.5,7.5,0,0,1,7.025,21.64Z" transform="translate(0 0)" fill="#e8a6a2"/>
</svg>
