<svg xmlns="http://www.w3.org/2000/svg" width="32" height="32" viewBox="0 0 32 32">
  <path id="Combined_Shape" data-name="Combined Shape" d="M16,32A16,16,0,1,1,32,16,16.018,16.018,0,0,1,16,32ZM14.332,11.723l.01.5c.007.332.011,1.37.011,3.083,0,1.676-.007,3.881-.021,6.74h3.427V16.285a2.525,2.525,0,0,1,.114-.843,2.222,2.222,0,0,1,.662-.891,1.7,1.7,0,0,1,1.1-.359,1.487,1.487,0,0,1,1.318.619,3.024,3.024,0,0,1,.422,1.714v5.521H24.8V16.13a4.983,4.983,0,0,0-1.084-3.463,3.714,3.714,0,0,0-2.865-1.183,4.163,4.163,0,0,0-1.192.161,2.724,2.724,0,0,0-.906.454,3.845,3.845,0,0,0-.994,1.093V11.723ZM9,11.723V22.046h3.437V11.723Zm1.74-4.969a1.972,1.972,0,0,0-1.4.5A1.688,1.688,0,0,0,8.8,8.536a1.714,1.714,0,0,0,.521,1.271,1.885,1.885,0,0,0,1.374.51h.022a1.97,1.97,0,0,0,1.411-.51,1.656,1.656,0,0,0,.526-1.271,1.744,1.744,0,0,0-.531-1.276A1.914,1.914,0,0,0,10.738,6.755Z" transform="translate(0 0)" fill="#e8a6a2"/>
</svg>
